<mxfile host="www.draw.io" modified="2019-12-17T19:24:11.589Z" agent="Mozilla/5.0 (Windows NT 10.0; Win64; x64) AppleWebKit/537.36 (KHTML, like Gecko) Chrome/79.0.3945.79 Safari/537.36" etag="66x3R3Q9FSXoQcQ0deGw" version="12.4.2" type="github" pages="1">
  <diagram name="Page-1" id="c7488fd3-1785-93aa-aadb-54a6760d102a">
    <mxGraphModel dx="599" dy="332" grid="1" gridSize="10" guides="1" tooltips="1" connect="1" arrows="1" fold="1" page="1" pageScale="1" pageWidth="1100" pageHeight="850" background="#ffffff" math="0" shadow="0">
      <root>
        <mxCell id="0"/>
        <mxCell id="1" parent="0"/>
        <mxCell id="2b4e8129b02d487f-1" value="Fluxo de Distrato - Imóveis Caixa" style="swimlane;html=1;childLayout=stackLayout;horizontal=1;startSize=20;horizontalStack=0;rounded=0;shadow=0;labelBackgroundColor=none;strokeWidth=1;fontFamily=Verdana;fontSize=8;align=center;" parent="1" vertex="1">
          <mxGeometry x="180" y="70" width="680" height="620" as="geometry"/>
        </mxCell>
        <mxCell id="2b4e8129b02d487f-2" value="Agência" style="swimlane;html=1;startSize=20;horizontal=0;" parent="2b4e8129b02d487f-1" vertex="1">
          <mxGeometry y="20" width="680" height="150" as="geometry"/>
        </mxCell>
        <mxCell id="2b4e8129b02d487f-3" value="GILIE" style="swimlane;html=1;startSize=20;horizontal=0;" parent="2b4e8129b02d487f-1" vertex="1">
          <mxGeometry y="170" width="680" height="150" as="geometry"/>
        </mxCell>
        <mxCell id="2b4e8129b02d487f-4" value="CEHOP" style="swimlane;html=1;startSize=20;horizontal=0;" parent="2b4e8129b02d487f-1" vertex="1">
          <mxGeometry y="320" width="680" height="150" as="geometry">
            <mxRectangle y="320" width="680" height="20" as="alternateBounds"/>
          </mxGeometry>
        </mxCell>
        <mxCell id="pchaAahInrBDBQtzrSDV-14" value="SUFUG" style="swimlane;html=1;startSize=20;horizontal=0;" parent="2b4e8129b02d487f-1" vertex="1">
          <mxGeometry y="470" width="680" height="150" as="geometry">
            <mxRectangle y="320" width="680" height="20" as="alternateBounds"/>
          </mxGeometry>
        </mxCell>
      </root>
    </mxGraphModel>
  </diagram>
</mxfile>
